<?xml version="1.0" encoding="UTF-8" standalone="no"?>
<!DOCTYPE svg PUBLIC "-//W3C//DTD SVG 1.1//EN"
 "http://www.w3.org/Graphics/SVG/1.1/DTD/svg11.dtd">
<!-- Generated by graphviz version 2.47.0 (20210316.0004)
 -->
<!-- Title: dependencies Pages: 1 -->
<svg width="2640pt" height="276pt"
 viewBox="0.00 0.00 2640.00 276.00" xmlns="http://www.w3.org/2000/svg" xmlns:xlink="http://www.w3.org/1999/xlink">
<g id="graph0" class="graph" transform="scale(1 1) rotate(0) translate(4 272)">
<title>dependencies</title>
<polygon fill="white" stroke="transparent" points="-4,4 -4,-272 2636,-272 2636,4 -4,4"/>
<text text-anchor="start" x="1295.01" y="-42.4" font-family="Times-12" font-weight="bold" font-size="14.00">Legend</text>
<polygon fill="#ffffb3" stroke="transparent" points="1082,-10 1082,-30 1102,-30 1102,-10 1082,-10"/>
<text text-anchor="start" x="1105.63" y="-15.4" font-family="Times-12" font-size="14.00"> &#160;Declarations</text>
<polygon fill="#8dd3c7" stroke="transparent" points="1195,-10 1195,-30 1215,-30 1215,-10 1195,-10"/>
<text text-anchor="start" x="1218.73" y="-15.4" font-family="Times-12" font-size="14.00"> &#160;Module</text>
<polygon fill="#80b1d3" stroke="transparent" points="1281,-10 1281,-30 1301,-30 1301,-10 1281,-10"/>
<text text-anchor="start" x="1304.78" y="-15.4" font-family="Times-12" font-size="14.00"> &#160;Bootstrap</text>
<polygon fill="#fdb462" stroke="transparent" points="1378,-10 1378,-30 1398,-30 1398,-10 1378,-10"/>
<text text-anchor="start" x="1401.67" y="-15.4" font-family="Times-12" font-size="14.00"> &#160;Providers</text>
<polygon fill="#fb8072" stroke="transparent" points="1474,-10 1474,-30 1494,-30 1494,-10 1474,-10"/>
<text text-anchor="start" x="1497.73" y="-15.4" font-family="Times-12" font-size="14.00"> &#160;Exports</text>
<g id="clust1" class="cluster">
<title>cluster_PrivateAreaModule</title>
<polygon fill="none" stroke="black" stroke-dasharray="1,5" points="8,-70 8,-260 2624,-260 2624,-70 8,-70"/>
</g>
<g id="clust6" class="cluster">
<title>cluster_PrivateAreaModule_imports</title>
<polygon fill="none" stroke="black" points="516,-143 516,-195 2616,-195 2616,-143 516,-143"/>
</g>
<g id="clust5" class="cluster">
<title>cluster_PrivateAreaModule_CollegeAreaComponent_providers</title>
<polygon fill="none" stroke="black" points="340,-78 340,-195 508,-195 508,-78 340,-78"/>
</g>
<g id="clust2" class="cluster">
<title>cluster_PrivateAreaModule_declarations</title>
<polygon fill="none" stroke="black" points="16,-143 16,-195 332,-195 332,-143 16,-143"/>
</g>
<!-- AdminAreaComponent -->
<g id="node1" class="node">
<title>AdminAreaComponent</title>
<polygon fill="#ffffb3" stroke="black" points="323.92,-187 176.08,-187 176.08,-151 323.92,-151 323.92,-187"/>
<text text-anchor="middle" x="250" y="-164.8" font-family="Times,serif" font-size="14.00">AdminAreaComponent</text>
</g>
<!-- PrivateAreaModule -->
<g id="node4" class="node">
<title>PrivateAreaModule</title>
<polygon fill="#8dd3c7" stroke="black" points="1411.4,-252 1408.4,-256 1387.4,-256 1384.4,-252 1284.6,-252 1284.6,-216 1411.4,-216 1411.4,-252"/>
<text text-anchor="middle" x="1348" y="-229.8" font-family="Times,serif" font-size="14.00">PrivateAreaModule</text>
</g>
<!-- AdminAreaComponent&#45;&gt;PrivateAreaModule -->
<g id="edge1" class="edge">
<title>AdminAreaComponent&#45;&gt;PrivateAreaModule</title>
<path fill="none" stroke="black" d="M250,-187.16C250,-209.35 250,-244 250,-244 250,-244 1274.62,-244 1274.62,-244"/>
<polygon fill="black" stroke="black" points="1274.62,-247.5 1284.62,-244 1274.62,-240.5 1274.62,-247.5"/>
</g>
<!-- UserAreaComponent -->
<g id="node2" class="node">
<title>UserAreaComponent</title>
<polygon fill="#ffffb3" stroke="black" points="158.46,-187 23.54,-187 23.54,-151 158.46,-151 158.46,-187"/>
<text text-anchor="middle" x="91" y="-164.8" font-family="Times,serif" font-size="14.00">UserAreaComponent</text>
</g>
<!-- UserAreaComponent&#45;&gt;PrivateAreaModule -->
<g id="edge2" class="edge">
<title>UserAreaComponent&#45;&gt;PrivateAreaModule</title>
<path fill="none" stroke="black" d="M91,-187.32C91,-210.66 91,-248 91,-248 91,-248 1274.37,-248 1274.37,-248"/>
<polygon fill="black" stroke="black" points="1274.37,-251.5 1284.37,-248 1274.37,-244.5 1274.37,-251.5"/>
</g>
<!-- CollegeAreaComponent -->
<g id="node3" class="node">
<title>CollegeAreaComponent</title>
<polygon fill="#ffffb3" stroke="black" points="500.08,-187 347.92,-187 347.92,-151 500.08,-151 500.08,-187"/>
<text text-anchor="middle" x="424" y="-164.8" font-family="Times,serif" font-size="14.00">CollegeAreaComponent</text>
</g>
<!-- CollegeAreaComponent&#45;&gt;PrivateAreaModule -->
<g id="edge3" class="edge">
<title>CollegeAreaComponent&#45;&gt;PrivateAreaModule</title>
<path fill="none" stroke="black" d="M424,-187.28C424,-208.32 424,-240 424,-240 424,-240 1274.49,-240 1274.49,-240"/>
<polygon fill="black" stroke="black" points="1274.49,-243.5 1284.49,-240 1274.49,-236.5 1274.49,-243.5"/>
</g>
<!-- MessageService -->
<g id="node5" class="node">
<title>MessageService</title>
<ellipse fill="#fdb462" stroke="black" cx="424" cy="-104" rx="73.55" ry="18"/>
<text text-anchor="middle" x="424" y="-99.8" font-family="Times,serif" font-size="14.00">MessageService</text>
</g>
<!-- MessageService&#45;&gt;CollegeAreaComponent -->
<g id="edge4" class="edge">
<title>MessageService&#45;&gt;CollegeAreaComponent</title>
<path fill="none" stroke="black" d="M424,-122.11C424,-122.11 424,-140.99 424,-140.99"/>
<polygon fill="black" stroke="black" points="420.5,-140.99 424,-150.99 427.5,-140.99 420.5,-140.99"/>
</g>
<!-- CommonModule -->
<g id="node6" class="node">
<title>CommonModule</title>
<polygon fill="#8dd3c7" stroke="black" points="2607.67,-187 2604.67,-191 2583.67,-191 2580.67,-187 2496.33,-187 2496.33,-151 2607.67,-151 2607.67,-187"/>
<text text-anchor="middle" x="2552" y="-164.8" font-family="Times,serif" font-size="14.00">CommonModule</text>
</g>
<!-- CommonModule&#45;&gt;PrivateAreaModule -->
<g id="edge5" class="edge">
<title>CommonModule&#45;&gt;PrivateAreaModule</title>
<path fill="none" stroke="black" d="M2552,-187.32C2552,-210.66 2552,-248 2552,-248 2552,-248 1421.46,-248 1421.46,-248"/>
<polygon fill="black" stroke="black" points="1421.46,-244.5 1411.46,-248 1421.46,-251.5 1421.46,-244.5"/>
</g>
<!-- PrivateAreaRoutingModule -->
<g id="node7" class="node">
<title>PrivateAreaRoutingModule</title>
<polygon fill="#8dd3c7" stroke="black" points="2477.52,-187 2474.52,-191 2453.52,-191 2450.52,-187 2306.48,-187 2306.48,-151 2477.52,-151 2477.52,-187"/>
<text text-anchor="middle" x="2392" y="-164.8" font-family="Times,serif" font-size="14.00">PrivateAreaRoutingModule</text>
</g>
<!-- PrivateAreaRoutingModule&#45;&gt;PrivateAreaModule -->
<g id="edge6" class="edge">
<title>PrivateAreaRoutingModule&#45;&gt;PrivateAreaModule</title>
<path fill="none" stroke="black" d="M2392,-187.16C2392,-209.35 2392,-244 2392,-244 2392,-244 1421.35,-244 1421.35,-244"/>
<polygon fill="black" stroke="black" points="1421.35,-240.5 1411.35,-244 1421.34,-247.5 1421.35,-240.5"/>
</g>
<!-- FormsModule -->
<g id="node8" class="node">
<title>FormsModule</title>
<polygon fill="#8dd3c7" stroke="black" points="2288.83,-187 2285.83,-191 2264.83,-191 2261.83,-187 2193.17,-187 2193.17,-151 2288.83,-151 2288.83,-187"/>
<text text-anchor="middle" x="2241" y="-164.8" font-family="Times,serif" font-size="14.00">FormsModule</text>
</g>
<!-- FormsModule&#45;&gt;PrivateAreaModule -->
<g id="edge7" class="edge">
<title>FormsModule&#45;&gt;PrivateAreaModule</title>
<path fill="none" stroke="black" d="M2241,-187.28C2241,-208.32 2241,-240 2241,-240 2241,-240 1421.51,-240 1421.51,-240"/>
<polygon fill="black" stroke="black" points="1421.51,-236.5 1411.51,-240 1421.51,-243.5 1421.51,-236.5"/>
</g>
<!-- ReactiveFormsModule -->
<g id="node9" class="node">
<title>ReactiveFormsModule</title>
<polygon fill="#8dd3c7" stroke="black" points="2175.3,-187 2172.3,-191 2151.3,-191 2148.3,-187 2030.7,-187 2030.7,-151 2175.3,-151 2175.3,-187"/>
<text text-anchor="middle" x="2103" y="-164.8" font-family="Times,serif" font-size="14.00">ReactiveFormsModule</text>
</g>
<!-- ReactiveFormsModule&#45;&gt;PrivateAreaModule -->
<g id="edge8" class="edge">
<title>ReactiveFormsModule&#45;&gt;PrivateAreaModule</title>
<path fill="none" stroke="black" d="M2103,-187.31C2103,-207.15 2103,-236 2103,-236 2103,-236 1421.4,-236 1421.4,-236"/>
<polygon fill="black" stroke="black" points="1421.4,-232.5 1411.4,-236 1421.4,-239.5 1421.4,-232.5"/>
</g>
<!-- SharedModule -->
<g id="node10" class="node">
<title>SharedModule</title>
<polygon fill="#8dd3c7" stroke="black" points="2013.42,-187 2010.42,-191 1989.42,-191 1986.42,-187 1914.58,-187 1914.58,-151 2013.42,-151 2013.42,-187"/>
<text text-anchor="middle" x="1964" y="-164.8" font-family="Times,serif" font-size="14.00">SharedModule</text>
</g>
<!-- SharedModule&#45;&gt;PrivateAreaModule -->
<g id="edge9" class="edge">
<title>SharedModule&#45;&gt;PrivateAreaModule</title>
<path fill="none" stroke="black" d="M1964,-187.22C1964,-205.83 1964,-232 1964,-232 1964,-232 1421.32,-232 1421.32,-232"/>
<polygon fill="black" stroke="black" points="1421.32,-228.5 1411.32,-232 1421.32,-235.5 1421.32,-228.5"/>
</g>
<!-- PrimeButtonModule -->
<g id="node11" class="node">
<title>PrimeButtonModule</title>
<polygon fill="#8dd3c7" stroke="black" points="1896.61,-187 1893.61,-191 1872.61,-191 1869.61,-187 1765.39,-187 1765.39,-151 1896.61,-151 1896.61,-187"/>
<text text-anchor="middle" x="1831" y="-164.8" font-family="Times,serif" font-size="14.00">PrimeButtonModule</text>
</g>
<!-- PrimeButtonModule&#45;&gt;PrivateAreaModule -->
<g id="edge10" class="edge">
<title>PrimeButtonModule&#45;&gt;PrivateAreaModule</title>
<path fill="none" stroke="black" d="M1831,-187.02C1831,-204.37 1831,-228 1831,-228 1831,-228 1421.64,-228 1421.64,-228"/>
<polygon fill="black" stroke="black" points="1421.64,-224.5 1411.64,-228 1421.64,-231.5 1421.64,-224.5"/>
</g>
<!-- PrimeCheckBoxModule -->
<g id="node12" class="node">
<title>PrimeCheckBoxModule</title>
<polygon fill="#8dd3c7" stroke="black" points="1747.09,-187 1744.09,-191 1723.09,-191 1720.09,-187 1594.91,-187 1594.91,-151 1747.09,-151 1747.09,-187"/>
<text text-anchor="middle" x="1671" y="-164.8" font-family="Times,serif" font-size="14.00">PrimeCheckBoxModule</text>
</g>
<!-- PrimeCheckBoxModule&#45;&gt;PrivateAreaModule -->
<g id="edge11" class="edge">
<title>PrimeCheckBoxModule&#45;&gt;PrivateAreaModule</title>
<path fill="none" stroke="black" d="M1671,-187.01C1671,-203.05 1671,-224 1671,-224 1671,-224 1421.43,-224 1421.43,-224"/>
<polygon fill="black" stroke="black" points="1421.43,-220.5 1411.43,-224 1421.43,-227.5 1421.43,-220.5"/>
</g>
<!-- PrimeInputTextModule -->
<g id="node13" class="node">
<title>PrimeInputTextModule</title>
<polygon fill="#8dd3c7" stroke="black" points="1577.2,-187 1574.2,-191 1553.2,-191 1550.2,-187 1428.8,-187 1428.8,-151 1577.2,-151 1577.2,-187"/>
<text text-anchor="middle" x="1503" y="-164.8" font-family="Times,serif" font-size="14.00">PrimeInputTextModule</text>
</g>
<!-- PrimeInputTextModule&#45;&gt;PrivateAreaModule -->
<g id="edge12" class="edge">
<title>PrimeInputTextModule&#45;&gt;PrivateAreaModule</title>
<path fill="none" stroke="black" d="M1503,-187.12C1503,-201.78 1503,-220 1503,-220 1503,-220 1421.49,-220 1421.49,-220"/>
<polygon fill="black" stroke="black" points="1421.49,-216.5 1411.49,-220 1421.49,-223.5 1421.49,-216.5"/>
</g>
<!-- PrimeTableModule -->
<g id="node14" class="node">
<title>PrimeTableModule</title>
<polygon fill="#8dd3c7" stroke="black" points="1410.36,-187 1407.36,-191 1386.36,-191 1383.36,-187 1285.64,-187 1285.64,-151 1410.36,-151 1410.36,-187"/>
<text text-anchor="middle" x="1348" y="-164.8" font-family="Times,serif" font-size="14.00">PrimeTableModule</text>
</g>
<!-- PrimeTableModule&#45;&gt;PrivateAreaModule -->
<g id="edge13" class="edge">
<title>PrimeTableModule&#45;&gt;PrivateAreaModule</title>
<path fill="none" stroke="black" d="M1348,-187.11C1348,-187.11 1348,-205.99 1348,-205.99"/>
<polygon fill="black" stroke="black" points="1344.5,-205.99 1348,-215.99 1351.5,-205.99 1344.5,-205.99"/>
</g>
<!-- PrimeToastModule -->
<g id="node15" class="node">
<title>PrimeToastModule</title>
<polygon fill="#8dd3c7" stroke="black" points="1268.09,-187 1265.09,-191 1244.09,-191 1241.09,-187 1143.91,-187 1143.91,-151 1268.09,-151 1268.09,-187"/>
<text text-anchor="middle" x="1206" y="-164.8" font-family="Times,serif" font-size="14.00">PrimeToastModule</text>
</g>
<!-- PrimeToastModule&#45;&gt;PrivateAreaModule -->
<g id="edge14" class="edge">
<title>PrimeToastModule&#45;&gt;PrivateAreaModule</title>
<path fill="none" stroke="black" d="M1206,-187.12C1206,-201.78 1206,-220 1206,-220 1206,-220 1274.48,-220 1274.48,-220"/>
<polygon fill="black" stroke="black" points="1274.48,-223.5 1284.48,-220 1274.48,-216.5 1274.48,-223.5"/>
</g>
<!-- PrimeFileUploadModule -->
<g id="node16" class="node">
<title>PrimeFileUploadModule</title>
<polygon fill="#8dd3c7" stroke="black" points="1125.98,-187 1122.98,-191 1101.98,-191 1098.98,-187 970.02,-187 970.02,-151 1125.98,-151 1125.98,-187"/>
<text text-anchor="middle" x="1048" y="-164.8" font-family="Times,serif" font-size="14.00">PrimeFileUploadModule</text>
</g>
<!-- PrimeFileUploadModule&#45;&gt;PrivateAreaModule -->
<g id="edge15" class="edge">
<title>PrimeFileUploadModule&#45;&gt;PrivateAreaModule</title>
<path fill="none" stroke="black" d="M1048,-187.01C1048,-203.05 1048,-224 1048,-224 1048,-224 1274.74,-224 1274.74,-224"/>
<polygon fill="black" stroke="black" points="1274.74,-227.5 1284.74,-224 1274.74,-220.5 1274.74,-227.5"/>
</g>
<!-- DialogModule -->
<g id="node17" class="node">
<title>DialogModule</title>
<polygon fill="#8dd3c7" stroke="black" points="951.65,-187 948.65,-191 927.65,-191 924.65,-187 854.35,-187 854.35,-151 951.65,-151 951.65,-187"/>
<text text-anchor="middle" x="903" y="-164.8" font-family="Times,serif" font-size="14.00">DialogModule</text>
</g>
<!-- DialogModule&#45;&gt;PrivateAreaModule -->
<g id="edge16" class="edge">
<title>DialogModule&#45;&gt;PrivateAreaModule</title>
<path fill="none" stroke="black" d="M903,-187.02C903,-204.37 903,-228 903,-228 903,-228 1274.71,-228 1274.71,-228"/>
<polygon fill="black" stroke="black" points="1274.71,-231.5 1284.71,-228 1274.71,-224.5 1274.71,-231.5"/>
</g>
<!-- PrimeMessagesModule -->
<g id="node18" class="node">
<title>PrimeMessagesModule</title>
<polygon fill="#8dd3c7" stroke="black" points="835.91,-187 832.91,-191 811.91,-191 808.91,-187 688.09,-187 688.09,-151 835.91,-151 835.91,-187"/>
<text text-anchor="middle" x="762" y="-164.8" font-family="Times,serif" font-size="14.00">PrimeMessagesModule</text>
</g>
<!-- PrimeMessagesModule&#45;&gt;PrivateAreaModule -->
<g id="edge17" class="edge">
<title>PrimeMessagesModule&#45;&gt;PrivateAreaModule</title>
<path fill="none" stroke="black" d="M762,-187.22C762,-205.83 762,-232 762,-232 762,-232 1274.73,-232 1274.73,-232"/>
<polygon fill="black" stroke="black" points="1274.73,-235.5 1284.73,-232 1274.73,-228.5 1274.73,-235.5"/>
</g>
<!-- PrimePasswordModule -->
<g id="node19" class="node">
<title>PrimePasswordModule</title>
<polygon fill="#8dd3c7" stroke="black" points="670.14,-187 667.14,-191 646.14,-191 643.14,-187 523.86,-187 523.86,-151 670.14,-151 670.14,-187"/>
<text text-anchor="middle" x="597" y="-164.8" font-family="Times,serif" font-size="14.00">PrimePasswordModule</text>
</g>
<!-- PrimePasswordModule&#45;&gt;PrivateAreaModule -->
<g id="edge18" class="edge">
<title>PrimePasswordModule&#45;&gt;PrivateAreaModule</title>
<path fill="none" stroke="black" d="M597,-187.31C597,-207.15 597,-236 597,-236 597,-236 1274.62,-236 1274.62,-236"/>
<polygon fill="black" stroke="black" points="1274.62,-239.5 1284.62,-236 1274.62,-232.5 1274.62,-239.5"/>
</g>
</g>
</svg>
