<?xml version="1.0" encoding="UTF-8" standalone="no"?>
<!DOCTYPE svg PUBLIC "-//W3C//DTD SVG 1.1//EN"
 "http://www.w3.org/Graphics/SVG/1.1/DTD/svg11.dtd">
<!-- Generated by graphviz version 2.47.0 (20210316.0004)
 -->
<!-- Title: dependencies Pages: 1 -->
<svg width="2184pt" height="211pt"
 viewBox="0.00 0.00 2184.00 211.00" xmlns="http://www.w3.org/2000/svg" xmlns:xlink="http://www.w3.org/1999/xlink">
<g id="graph0" class="graph" transform="scale(1 1) rotate(0) translate(4 207)">
<title>dependencies</title>
<polygon fill="white" stroke="transparent" points="-4,4 -4,-207 2180,-207 2180,4 -4,4"/>
<text text-anchor="start" x="1067.01" y="-42.4" font-family="Times-12" font-weight="bold" font-size="14.00">Legend</text>
<polygon fill="#ffffb3" stroke="transparent" points="854,-10 854,-30 874,-30 874,-10 854,-10"/>
<text text-anchor="start" x="877.63" y="-15.4" font-family="Times-12" font-size="14.00"> &#160;Declarations</text>
<polygon fill="#8dd3c7" stroke="transparent" points="967,-10 967,-30 987,-30 987,-10 967,-10"/>
<text text-anchor="start" x="990.73" y="-15.4" font-family="Times-12" font-size="14.00"> &#160;Module</text>
<polygon fill="#80b1d3" stroke="transparent" points="1053,-10 1053,-30 1073,-30 1073,-10 1053,-10"/>
<text text-anchor="start" x="1076.78" y="-15.4" font-family="Times-12" font-size="14.00"> &#160;Bootstrap</text>
<polygon fill="#fdb462" stroke="transparent" points="1150,-10 1150,-30 1170,-30 1170,-10 1150,-10"/>
<text text-anchor="start" x="1173.67" y="-15.4" font-family="Times-12" font-size="14.00"> &#160;Providers</text>
<polygon fill="#fb8072" stroke="transparent" points="1246,-10 1246,-30 1266,-30 1266,-10 1246,-10"/>
<text text-anchor="start" x="1269.73" y="-15.4" font-family="Times-12" font-size="14.00"> &#160;Exports</text>
<g id="clust1" class="cluster">
<title>cluster_SchoolsModule</title>
<polygon fill="none" stroke="black" stroke-dasharray="1,5" points="8,-70 8,-195 2168,-195 2168,-70 8,-70"/>
</g>
<g id="clust7" class="cluster">
<title>cluster_SchoolsModule_imports</title>
<polygon fill="none" stroke="black" points="580,-78 580,-130 2160,-130 2160,-78 580,-78"/>
</g>
<g id="clust2" class="cluster">
<title>cluster_SchoolsModule_declarations</title>
<polygon fill="none" stroke="black" points="16,-78 16,-130 572,-130 572,-78 16,-78"/>
</g>
<!-- SchoolListComponent -->
<g id="node1" class="node">
<title>SchoolListComponent</title>
<polygon fill="#ffffb3" stroke="black" points="564,-122 422,-122 422,-86 564,-86 564,-122"/>
<text text-anchor="middle" x="493" y="-99.8" font-family="Times,serif" font-size="14.00">SchoolListComponent</text>
</g>
<!-- SchoolsModule -->
<g id="node5" class="node">
<title>SchoolsModule</title>
<polygon fill="#8dd3c7" stroke="black" points="1215.88,-187 1212.88,-191 1191.88,-191 1188.88,-187 1112.12,-187 1112.12,-151 1215.88,-151 1215.88,-187"/>
<text text-anchor="middle" x="1164" y="-164.8" font-family="Times,serif" font-size="14.00">SchoolsModule</text>
</g>
<!-- SchoolListComponent&#45;&gt;SchoolsModule -->
<g id="edge1" class="edge">
<title>SchoolListComponent&#45;&gt;SchoolsModule</title>
<path fill="none" stroke="black" d="M493,-122.11C493,-141.34 493,-169 493,-169 493,-169 1101.91,-169 1101.91,-169"/>
<polygon fill="black" stroke="black" points="1101.91,-172.5 1111.91,-169 1101.91,-165.5 1101.91,-172.5"/>
</g>
<!-- SchoolDetailComponent -->
<g id="node2" class="node">
<title>SchoolDetailComponent</title>
<polygon fill="#ffffb3" stroke="black" points="404.43,-122 249.57,-122 249.57,-86 404.43,-86 404.43,-122"/>
<text text-anchor="middle" x="327" y="-99.8" font-family="Times,serif" font-size="14.00">SchoolDetailComponent</text>
</g>
<!-- SchoolDetailComponent&#45;&gt;SchoolsModule -->
<g id="edge2" class="edge">
<title>SchoolDetailComponent&#45;&gt;SchoolsModule</title>
<path fill="none" stroke="black" d="M327,-122.03C327,-142.77 327,-174 327,-174 327,-174 1101.96,-174 1101.96,-174"/>
<polygon fill="black" stroke="black" points="1101.96,-177.5 1111.96,-174 1101.96,-170.5 1101.96,-177.5"/>
</g>
<!-- DescriptionPipe -->
<g id="node3" class="node">
<title>DescriptionPipe</title>
<polygon fill="#ffffb3" stroke="black" points="232.2,-122 125.8,-122 125.8,-86 232.2,-86 232.2,-122"/>
<text text-anchor="middle" x="179" y="-99.8" font-family="Times,serif" font-size="14.00">DescriptionPipe</text>
</g>
<!-- DescriptionPipe&#45;&gt;SchoolsModule -->
<g id="edge3" class="edge">
<title>DescriptionPipe&#45;&gt;SchoolsModule</title>
<path fill="none" stroke="black" d="M179,-122.29C179,-144.21 179,-178 179,-178 179,-178 1102.08,-178 1102.08,-178"/>
<polygon fill="black" stroke="black" points="1102.08,-181.5 1112.08,-178 1102.08,-174.5 1102.08,-181.5"/>
</g>
<!-- SafeUrlPipe -->
<g id="node4" class="node">
<title>SafeUrlPipe</title>
<polygon fill="#ffffb3" stroke="black" points="108.42,-122 23.58,-122 23.58,-86 108.42,-86 108.42,-122"/>
<text text-anchor="middle" x="66" y="-99.8" font-family="Times,serif" font-size="14.00">SafeUrlPipe</text>
</g>
<!-- SafeUrlPipe&#45;&gt;SchoolsModule -->
<g id="edge4" class="edge">
<title>SafeUrlPipe&#45;&gt;SchoolsModule</title>
<path fill="none" stroke="black" d="M66,-122.32C66,-145.66 66,-183 66,-183 66,-183 1101.78,-183 1101.78,-183"/>
<polygon fill="black" stroke="black" points="1101.78,-186.5 1111.78,-183 1101.78,-179.5 1101.78,-186.5"/>
</g>
<!-- CommonModule -->
<g id="node6" class="node">
<title>CommonModule</title>
<polygon fill="#8dd3c7" stroke="black" points="2151.67,-122 2148.67,-126 2127.67,-126 2124.67,-122 2040.33,-122 2040.33,-86 2151.67,-86 2151.67,-122"/>
<text text-anchor="middle" x="2096" y="-99.8" font-family="Times,serif" font-size="14.00">CommonModule</text>
</g>
<!-- CommonModule&#45;&gt;SchoolsModule -->
<g id="edge5" class="edge">
<title>CommonModule&#45;&gt;SchoolsModule</title>
<path fill="none" stroke="black" d="M2096,-122.32C2096,-145.66 2096,-183 2096,-183 2096,-183 1226.11,-183 1226.11,-183"/>
<polygon fill="black" stroke="black" points="1226.11,-179.5 1216.11,-183 1226.11,-186.5 1226.11,-179.5"/>
</g>
<!-- SchoolsRoutingModule -->
<g id="node7" class="node">
<title>SchoolsRoutingModule</title>
<polygon fill="#8dd3c7" stroke="black" points="2022.5,-122 2019.5,-126 1998.5,-126 1995.5,-122 1873.5,-122 1873.5,-86 2022.5,-86 2022.5,-122"/>
<text text-anchor="middle" x="1948" y="-99.8" font-family="Times,serif" font-size="14.00">SchoolsRoutingModule</text>
</g>
<!-- SchoolsRoutingModule&#45;&gt;SchoolsModule -->
<g id="edge6" class="edge">
<title>SchoolsRoutingModule&#45;&gt;SchoolsModule</title>
<path fill="none" stroke="black" d="M1948,-122.29C1948,-144.21 1948,-178 1948,-178 1948,-178 1226.05,-178 1226.05,-178"/>
<polygon fill="black" stroke="black" points="1226.05,-174.5 1216.05,-178 1226.05,-181.5 1226.05,-174.5"/>
</g>
<!-- MapModule -->
<g id="node8" class="node">
<title>MapModule</title>
<polygon fill="#8dd3c7" stroke="black" points="1855.71,-122 1852.71,-126 1831.71,-126 1828.71,-122 1770.29,-122 1770.29,-86 1855.71,-86 1855.71,-122"/>
<text text-anchor="middle" x="1813" y="-99.8" font-family="Times,serif" font-size="14.00">MapModule</text>
</g>
<!-- MapModule&#45;&gt;SchoolsModule -->
<g id="edge7" class="edge">
<title>MapModule&#45;&gt;SchoolsModule</title>
<path fill="none" stroke="black" d="M1813,-122.03C1813,-142.77 1813,-174 1813,-174 1813,-174 1226.01,-174 1226.01,-174"/>
<polygon fill="black" stroke="black" points="1226.01,-170.5 1216.01,-174 1226.01,-177.5 1226.01,-170.5"/>
</g>
<!-- FormsModule -->
<g id="node9" class="node">
<title>FormsModule</title>
<polygon fill="#8dd3c7" stroke="black" points="1752.83,-122 1749.83,-126 1728.83,-126 1725.83,-122 1657.17,-122 1657.17,-86 1752.83,-86 1752.83,-122"/>
<text text-anchor="middle" x="1705" y="-99.8" font-family="Times,serif" font-size="14.00">FormsModule</text>
</g>
<!-- FormsModule&#45;&gt;SchoolsModule -->
<g id="edge8" class="edge">
<title>FormsModule&#45;&gt;SchoolsModule</title>
<path fill="none" stroke="black" d="M1705,-122.11C1705,-141.34 1705,-169 1705,-169 1705,-169 1226.36,-169 1226.36,-169"/>
<polygon fill="black" stroke="black" points="1226.36,-165.5 1216.36,-169 1226.36,-172.5 1226.36,-165.5"/>
</g>
<!-- SharedModule -->
<g id="node10" class="node">
<title>SharedModule</title>
<polygon fill="#8dd3c7" stroke="black" points="1639.42,-122 1636.42,-126 1615.42,-126 1612.42,-122 1540.58,-122 1540.58,-86 1639.42,-86 1639.42,-122"/>
<text text-anchor="middle" x="1590" y="-99.8" font-family="Times,serif" font-size="14.00">SharedModule</text>
</g>
<!-- SharedModule&#45;&gt;SchoolsModule -->
<g id="edge9" class="edge">
<title>SharedModule&#45;&gt;SchoolsModule</title>
<path fill="none" stroke="black" d="M1590,-122.3C1590,-140.27 1590,-165 1590,-165 1590,-165 1226.24,-165 1226.24,-165"/>
<polygon fill="black" stroke="black" points="1226.24,-161.5 1216.24,-165 1226.24,-168.5 1226.24,-161.5"/>
</g>
<!-- PrimeCardModule -->
<g id="node11" class="node">
<title>PrimeCardModule</title>
<polygon fill="#8dd3c7" stroke="black" points="1523.2,-122 1520.2,-126 1499.2,-126 1496.2,-122 1402.8,-122 1402.8,-86 1523.2,-86 1523.2,-122"/>
<text text-anchor="middle" x="1463" y="-99.8" font-family="Times,serif" font-size="14.00">PrimeCardModule</text>
</g>
<!-- PrimeCardModule&#45;&gt;SchoolsModule -->
<g id="edge10" class="edge">
<title>PrimeCardModule&#45;&gt;SchoolsModule</title>
<path fill="none" stroke="black" d="M1463,-122.03C1463,-138.4 1463,-160 1463,-160 1463,-160 1226.08,-160 1226.08,-160"/>
<polygon fill="black" stroke="black" points="1226.08,-156.5 1216.08,-160 1226.08,-163.5 1226.08,-156.5"/>
</g>
<!-- PrimeButtonModule -->
<g id="node12" class="node">
<title>PrimeButtonModule</title>
<polygon fill="#8dd3c7" stroke="black" points="1384.61,-122 1381.61,-126 1360.61,-126 1357.61,-122 1253.39,-122 1253.39,-86 1384.61,-86 1384.61,-122"/>
<text text-anchor="middle" x="1319" y="-99.8" font-family="Times,serif" font-size="14.00">PrimeButtonModule</text>
</g>
<!-- PrimeButtonModule&#45;&gt;SchoolsModule -->
<g id="edge11" class="edge">
<title>PrimeButtonModule&#45;&gt;SchoolsModule</title>
<path fill="none" stroke="black" d="M1319,-122.19C1319,-137.18 1319,-156 1319,-156 1319,-156 1226.04,-156 1226.04,-156"/>
<polygon fill="black" stroke="black" points="1226.04,-152.5 1216.04,-156 1226.04,-159.5 1226.04,-152.5"/>
</g>
<!-- PrimeCarouselModule -->
<g id="node13" class="node">
<title>PrimeCarouselModule</title>
<polygon fill="#8dd3c7" stroke="black" points="1235.25,-122 1232.25,-126 1211.25,-126 1208.25,-122 1092.75,-122 1092.75,-86 1235.25,-86 1235.25,-122"/>
<text text-anchor="middle" x="1164" y="-99.8" font-family="Times,serif" font-size="14.00">PrimeCarouselModule</text>
</g>
<!-- PrimeCarouselModule&#45;&gt;SchoolsModule -->
<g id="edge12" class="edge">
<title>PrimeCarouselModule&#45;&gt;SchoolsModule</title>
<path fill="none" stroke="black" d="M1164,-122.11C1164,-122.11 1164,-140.99 1164,-140.99"/>
<polygon fill="black" stroke="black" points="1160.5,-140.99 1164,-150.99 1167.5,-140.99 1160.5,-140.99"/>
</g>
<!-- PrimeDropdownModule -->
<g id="node14" class="node">
<title>PrimeDropdownModule</title>
<polygon fill="#8dd3c7" stroke="black" points="1074.36,-122 1071.36,-126 1050.36,-126 1047.36,-122 921.64,-122 921.64,-86 1074.36,-86 1074.36,-122"/>
<text text-anchor="middle" x="998" y="-99.8" font-family="Times,serif" font-size="14.00">PrimeDropdownModule</text>
</g>
<!-- PrimeDropdownModule&#45;&gt;SchoolsModule -->
<g id="edge13" class="edge">
<title>PrimeDropdownModule&#45;&gt;SchoolsModule</title>
<path fill="none" stroke="black" d="M998,-122.19C998,-137.18 998,-156 998,-156 998,-156 1101.93,-156 1101.93,-156"/>
<polygon fill="black" stroke="black" points="1101.93,-159.5 1111.93,-156 1101.93,-152.5 1101.93,-159.5"/>
</g>
<!-- PrimeCheckboxModule -->
<g id="node15" class="node">
<title>PrimeCheckboxModule</title>
<polygon fill="#8dd3c7" stroke="black" points="903.75,-122 900.75,-126 879.75,-126 876.75,-122 754.25,-122 754.25,-86 903.75,-86 903.75,-122"/>
<text text-anchor="middle" x="829" y="-99.8" font-family="Times,serif" font-size="14.00">PrimeCheckboxModule</text>
</g>
<!-- PrimeCheckboxModule&#45;&gt;SchoolsModule -->
<g id="edge14" class="edge">
<title>PrimeCheckboxModule&#45;&gt;SchoolsModule</title>
<path fill="none" stroke="black" d="M829,-122.03C829,-138.4 829,-160 829,-160 829,-160 1102.02,-160 1102.02,-160"/>
<polygon fill="black" stroke="black" points="1102.02,-163.5 1112.02,-160 1102.02,-156.5 1102.02,-163.5"/>
</g>
<!-- PrimeInputTextModule -->
<g id="node16" class="node">
<title>PrimeInputTextModule</title>
<polygon fill="#8dd3c7" stroke="black" points="736.2,-122 733.2,-126 712.2,-126 709.2,-122 587.8,-122 587.8,-86 736.2,-86 736.2,-122"/>
<text text-anchor="middle" x="662" y="-99.8" font-family="Times,serif" font-size="14.00">PrimeInputTextModule</text>
</g>
<!-- PrimeInputTextModule&#45;&gt;SchoolsModule -->
<g id="edge15" class="edge">
<title>PrimeInputTextModule&#45;&gt;SchoolsModule</title>
<path fill="none" stroke="black" d="M662,-122.3C662,-140.27 662,-165 662,-165 662,-165 1101.7,-165 1101.7,-165"/>
<polygon fill="black" stroke="black" points="1101.7,-168.5 1111.7,-165 1101.7,-161.5 1101.7,-168.5"/>
</g>
</g>
</svg>
