<?xml version="1.0" encoding="UTF-8" standalone="no"?>
<!DOCTYPE svg PUBLIC "-//W3C//DTD SVG 1.1//EN"
 "http://www.w3.org/Graphics/SVG/1.1/DTD/svg11.dtd">
<!-- Generated by graphviz version 2.47.0 (20210316.0004)
 -->
<!-- Title: dependencies Pages: 1 -->
<svg width="1638pt" height="284pt"
 viewBox="0.00 0.00 1638.00 284.00" xmlns="http://www.w3.org/2000/svg" xmlns:xlink="http://www.w3.org/1999/xlink">
<g id="graph0" class="graph" transform="scale(1 1) rotate(0) translate(4 280)">
<title>dependencies</title>
<polygon fill="white" stroke="transparent" points="-4,4 -4,-280 1634,-280 1634,4 -4,4"/>
<text text-anchor="start" x="794.01" y="-42.4" font-family="Times-12" font-weight="bold" font-size="14.00">Legend</text>
<polygon fill="#ffffb3" stroke="transparent" points="581,-10 581,-30 601,-30 601,-10 581,-10"/>
<text text-anchor="start" x="604.63" y="-15.4" font-family="Times-12" font-size="14.00"> &#160;Declarations</text>
<polygon fill="#8dd3c7" stroke="transparent" points="694,-10 694,-30 714,-30 714,-10 694,-10"/>
<text text-anchor="start" x="717.73" y="-15.4" font-family="Times-12" font-size="14.00"> &#160;Module</text>
<polygon fill="#80b1d3" stroke="transparent" points="780,-10 780,-30 800,-30 800,-10 780,-10"/>
<text text-anchor="start" x="803.78" y="-15.4" font-family="Times-12" font-size="14.00"> &#160;Bootstrap</text>
<polygon fill="#fdb462" stroke="transparent" points="877,-10 877,-30 897,-30 897,-10 877,-10"/>
<text text-anchor="start" x="900.67" y="-15.4" font-family="Times-12" font-size="14.00"> &#160;Providers</text>
<polygon fill="#fb8072" stroke="transparent" points="973,-10 973,-30 993,-30 993,-10 973,-10"/>
<text text-anchor="start" x="996.73" y="-15.4" font-family="Times-12" font-size="14.00"> &#160;Exports</text>
<g id="clust1" class="cluster">
<title>cluster_SharedModule</title>
<polygon fill="none" stroke="black" stroke-dasharray="1,5" points="8,-70 8,-268 1622,-268 1622,-70 8,-70"/>
</g>
<g id="clust5" class="cluster">
<title>cluster_SharedModule_imports</title>
<polygon fill="none" stroke="black" points="298,-78 298,-130 1614,-130 1614,-78 298,-78"/>
</g>
<g id="clust2" class="cluster">
<title>cluster_SharedModule_declarations</title>
<polygon fill="none" stroke="black" points="16,-78 16,-130 290,-130 290,-78 16,-78"/>
</g>
<g id="clust6" class="cluster">
<title>cluster_SharedModule_exports</title>
<polygon fill="none" stroke="black" points="689,-208 689,-260 971,-260 971,-208 689,-208"/>
</g>
<!-- NavbarComponent -->
<g id="node1" class="node">
<title>NavbarComponent</title>
<polygon fill="#ffffb3" stroke="black" points="282.03,-122 159.97,-122 159.97,-86 282.03,-86 282.03,-122"/>
<text text-anchor="middle" x="221" y="-99.8" font-family="Times,serif" font-size="14.00">NavbarComponent</text>
</g>
<!-- SharedModule -->
<g id="node3" class="node">
<title>SharedModule</title>
<polygon fill="#8dd3c7" stroke="black" points="878.42,-187 875.42,-191 854.42,-191 851.42,-187 779.58,-187 779.58,-151 878.42,-151 878.42,-187"/>
<text text-anchor="middle" x="829" y="-164.8" font-family="Times,serif" font-size="14.00">SharedModule</text>
</g>
<!-- NavbarComponent&#45;&gt;SharedModule -->
<g id="edge1" class="edge">
<title>NavbarComponent&#45;&gt;SharedModule</title>
<path fill="none" stroke="black" d="M221,-122.28C221,-143.32 221,-175 221,-175 221,-175 769.76,-175 769.76,-175"/>
<polygon fill="black" stroke="black" points="769.76,-178.5 779.76,-175 769.76,-171.5 769.76,-178.5"/>
</g>
<!-- FooterComponent -->
<g id="node2" class="node">
<title>FooterComponent</title>
<polygon fill="#ffffb3" stroke="black" points="141.88,-122 24.12,-122 24.12,-86 141.88,-86 141.88,-122"/>
<text text-anchor="middle" x="83" y="-99.8" font-family="Times,serif" font-size="14.00">FooterComponent</text>
</g>
<!-- FooterComponent&#45;&gt;SharedModule -->
<g id="edge2" class="edge">
<title>FooterComponent&#45;&gt;SharedModule</title>
<path fill="none" stroke="black" d="M83,-122.25C83,-145.02 83,-181 83,-181 83,-181 769.76,-181 769.76,-181"/>
<polygon fill="black" stroke="black" points="769.76,-184.5 779.76,-181 769.76,-177.5 769.76,-184.5"/>
</g>
<!-- NavbarComponent  -->
<g id="node13" class="node">
<title>NavbarComponent </title>
<polygon fill="#fb8072" stroke="black" points="963.03,-252 836.97,-252 836.97,-216 963.03,-216 963.03,-252"/>
<text text-anchor="middle" x="900" y="-229.8" font-family="Times,serif" font-size="14.00">NavbarComponent </text>
</g>
<!-- SharedModule&#45;&gt;NavbarComponent  -->
<g id="edge12" class="edge">
<title>SharedModule&#45;&gt;NavbarComponent </title>
<path fill="none" stroke="black" stroke-dasharray="5,2" d="M857.6,-187.11C857.6,-187.11 857.6,-205.99 857.6,-205.99"/>
<polygon fill="black" stroke="black" points="854.1,-205.99 857.6,-215.99 861.1,-205.99 854.1,-205.99"/>
</g>
<!-- FooterComponent  -->
<g id="node14" class="node">
<title>FooterComponent </title>
<polygon fill="#fb8072" stroke="black" points="818.88,-252 697.12,-252 697.12,-216 818.88,-216 818.88,-252"/>
<text text-anchor="middle" x="758" y="-229.8" font-family="Times,serif" font-size="14.00">FooterComponent </text>
</g>
<!-- SharedModule&#45;&gt;FooterComponent  -->
<g id="edge13" class="edge">
<title>SharedModule&#45;&gt;FooterComponent </title>
<path fill="none" stroke="black" stroke-dasharray="5,2" d="M799.24,-187.11C799.24,-187.11 799.24,-205.99 799.24,-205.99"/>
<polygon fill="black" stroke="black" points="795.74,-205.99 799.24,-215.99 802.74,-205.99 795.74,-205.99"/>
</g>
<!-- CommonModule -->
<g id="node4" class="node">
<title>CommonModule</title>
<polygon fill="#8dd3c7" stroke="black" points="1605.67,-122 1602.67,-126 1581.67,-126 1578.67,-122 1494.33,-122 1494.33,-86 1605.67,-86 1605.67,-122"/>
<text text-anchor="middle" x="1550" y="-99.8" font-family="Times,serif" font-size="14.00">CommonModule</text>
</g>
<!-- CommonModule&#45;&gt;SharedModule -->
<g id="edge3" class="edge">
<title>CommonModule&#45;&gt;SharedModule</title>
<path fill="none" stroke="black" d="M1550,-122.25C1550,-145.02 1550,-181 1550,-181 1550,-181 888.27,-181 888.27,-181"/>
<polygon fill="black" stroke="black" points="888.27,-177.5 878.27,-181 888.27,-184.5 888.27,-177.5"/>
</g>
<!-- RouterModule -->
<g id="node5" class="node">
<title>RouterModule</title>
<polygon fill="#8dd3c7" stroke="black" points="1475.65,-122 1472.65,-126 1451.65,-126 1448.65,-122 1378.35,-122 1378.35,-86 1475.65,-86 1475.65,-122"/>
<text text-anchor="middle" x="1427" y="-99.8" font-family="Times,serif" font-size="14.00">RouterModule</text>
</g>
<!-- RouterModule&#45;&gt;SharedModule -->
<g id="edge4" class="edge">
<title>RouterModule&#45;&gt;SharedModule</title>
<path fill="none" stroke="black" d="M1427,-122.28C1427,-143.32 1427,-175 1427,-175 1427,-175 888.45,-175 888.45,-175"/>
<polygon fill="black" stroke="black" points="888.45,-171.5 878.45,-175 888.45,-178.5 888.45,-171.5"/>
</g>
<!-- PrimeButtonModule -->
<g id="node6" class="node">
<title>PrimeButtonModule</title>
<polygon fill="#8dd3c7" stroke="black" points="1360.61,-122 1357.61,-126 1336.61,-126 1333.61,-122 1229.39,-122 1229.39,-86 1360.61,-86 1360.61,-122"/>
<text text-anchor="middle" x="1295" y="-99.8" font-family="Times,serif" font-size="14.00">PrimeButtonModule</text>
</g>
<!-- PrimeButtonModule&#45;&gt;SharedModule -->
<g id="edge5" class="edge">
<title>PrimeButtonModule&#45;&gt;SharedModule</title>
<path fill="none" stroke="black" d="M1295,-122.11C1295,-141.34 1295,-169 1295,-169 1295,-169 888.43,-169 888.43,-169"/>
<polygon fill="black" stroke="black" points="888.43,-165.5 878.43,-169 888.43,-172.5 888.43,-165.5"/>
</g>
<!-- PrimeDialogModule -->
<g id="node7" class="node">
<title>PrimeDialogModule</title>
<polygon fill="#8dd3c7" stroke="black" points="1211.59,-122 1208.59,-126 1187.59,-126 1184.59,-122 1080.41,-122 1080.41,-86 1211.59,-86 1211.59,-122"/>
<text text-anchor="middle" x="1146" y="-99.8" font-family="Times,serif" font-size="14.00">PrimeDialogModule</text>
</g>
<!-- PrimeDialogModule&#45;&gt;SharedModule -->
<g id="edge6" class="edge">
<title>PrimeDialogModule&#45;&gt;SharedModule</title>
<path fill="none" stroke="black" d="M1146,-122.02C1146,-139.37 1146,-163 1146,-163 1146,-163 888.53,-163 888.53,-163"/>
<polygon fill="black" stroke="black" points="888.53,-159.5 878.53,-163 888.53,-166.5 888.53,-159.5"/>
</g>
<!-- PrimePasswordModule -->
<g id="node8" class="node">
<title>PrimePasswordModule</title>
<polygon fill="#8dd3c7" stroke="black" points="1062.14,-122 1059.14,-126 1038.14,-126 1035.14,-122 915.86,-122 915.86,-86 1062.14,-86 1062.14,-122"/>
<text text-anchor="middle" x="989" y="-99.8" font-family="Times,serif" font-size="14.00">PrimePasswordModule</text>
</g>
<!-- PrimePasswordModule&#45;&gt;SharedModule -->
<g id="edge7" class="edge">
<title>PrimePasswordModule&#45;&gt;SharedModule</title>
<path fill="none" stroke="black" d="M939.35,-122.24C939.35,-137.57 939.35,-157 939.35,-157 939.35,-157 888.36,-157 888.36,-157"/>
<polygon fill="black" stroke="black" points="888.36,-153.5 878.36,-157 888.36,-160.5 888.36,-153.5"/>
</g>
<!-- PrimeToolbarModule -->
<g id="node9" class="node">
<title>PrimeToolbarModule</title>
<polygon fill="#8dd3c7" stroke="black" points="897.81,-122 894.81,-126 873.81,-126 870.81,-122 760.19,-122 760.19,-86 897.81,-86 897.81,-122"/>
<text text-anchor="middle" x="829" y="-99.8" font-family="Times,serif" font-size="14.00">PrimeToolbarModule</text>
</g>
<!-- PrimeToolbarModule&#45;&gt;SharedModule -->
<g id="edge8" class="edge">
<title>PrimeToolbarModule&#45;&gt;SharedModule</title>
<path fill="none" stroke="black" d="M829,-122.11C829,-122.11 829,-140.99 829,-140.99"/>
<polygon fill="black" stroke="black" points="825.5,-140.99 829,-150.99 832.5,-140.99 825.5,-140.99"/>
</g>
<!-- PrimeCardModule -->
<g id="node10" class="node">
<title>PrimeCardModule</title>
<polygon fill="#8dd3c7" stroke="black" points="742.2,-122 739.2,-126 718.2,-126 715.2,-122 621.8,-122 621.8,-86 742.2,-86 742.2,-122"/>
<text text-anchor="middle" x="682" y="-99.8" font-family="Times,serif" font-size="14.00">PrimeCardModule</text>
</g>
<!-- PrimeCardModule&#45;&gt;SharedModule -->
<g id="edge9" class="edge">
<title>PrimeCardModule&#45;&gt;SharedModule</title>
<path fill="none" stroke="black" d="M719.7,-122.24C719.7,-137.57 719.7,-157 719.7,-157 719.7,-157 769.79,-157 769.79,-157"/>
<polygon fill="black" stroke="black" points="769.79,-160.5 779.79,-157 769.79,-153.5 769.79,-160.5"/>
</g>
<!-- PrimeCarouselModule -->
<g id="node11" class="node">
<title>PrimeCarouselModule</title>
<polygon fill="#8dd3c7" stroke="black" points="604.25,-122 601.25,-126 580.25,-126 577.25,-122 461.75,-122 461.75,-86 604.25,-86 604.25,-122"/>
<text text-anchor="middle" x="533" y="-99.8" font-family="Times,serif" font-size="14.00">PrimeCarouselModule</text>
</g>
<!-- PrimeCarouselModule&#45;&gt;SharedModule -->
<g id="edge10" class="edge">
<title>PrimeCarouselModule&#45;&gt;SharedModule</title>
<path fill="none" stroke="black" d="M533,-122.02C533,-139.37 533,-163 533,-163 533,-163 769.46,-163 769.46,-163"/>
<polygon fill="black" stroke="black" points="769.46,-166.5 779.46,-163 769.46,-159.5 769.46,-166.5"/>
</g>
<!-- PrimeGalleriaModule -->
<g id="node12" class="node">
<title>PrimeGalleriaModule</title>
<polygon fill="#8dd3c7" stroke="black" points="444.07,-122 441.07,-126 420.07,-126 417.07,-122 305.93,-122 305.93,-86 444.07,-86 444.07,-122"/>
<text text-anchor="middle" x="375" y="-99.8" font-family="Times,serif" font-size="14.00">PrimeGalleriaModule</text>
</g>
<!-- PrimeGalleriaModule&#45;&gt;SharedModule -->
<g id="edge11" class="edge">
<title>PrimeGalleriaModule&#45;&gt;SharedModule</title>
<path fill="none" stroke="black" d="M375,-122.11C375,-141.34 375,-169 375,-169 375,-169 769.55,-169 769.55,-169"/>
<polygon fill="black" stroke="black" points="769.55,-172.5 779.55,-169 769.55,-165.5 769.55,-172.5"/>
</g>
</g>
</svg>
