<?xml version="1.0" encoding="UTF-8" standalone="no"?>
<!DOCTYPE svg PUBLIC "-//W3C//DTD SVG 1.1//EN"
 "http://www.w3.org/Graphics/SVG/1.1/DTD/svg11.dtd">
<!-- Generated by graphviz version 2.47.0 (20210316.0004)
 -->
<!-- Title: dependencies Pages: 1 -->
<svg width="5465pt" height="284pt"
 viewBox="0.00 0.00 5465.00 284.00" xmlns="http://www.w3.org/2000/svg" xmlns:xlink="http://www.w3.org/1999/xlink">
<g id="graph0" class="graph" transform="scale(1 1) rotate(0) translate(4 280)">
<title>dependencies</title>
<polygon fill="white" stroke="transparent" points="-4,4 -4,-280 5461,-280 5461,4 -4,4"/>
<text text-anchor="start" x="2707.51" y="-42.4" font-family="Times-12" font-weight="bold" font-size="14.00">Legend</text>
<polygon fill="#ffffb3" stroke="transparent" points="2494.5,-10 2494.5,-30 2514.5,-30 2514.5,-10 2494.5,-10"/>
<text text-anchor="start" x="2518.13" y="-15.4" font-family="Times-12" font-size="14.00"> &#160;Declarations</text>
<polygon fill="#8dd3c7" stroke="transparent" points="2607.5,-10 2607.5,-30 2627.5,-30 2627.5,-10 2607.5,-10"/>
<text text-anchor="start" x="2631.23" y="-15.4" font-family="Times-12" font-size="14.00"> &#160;Module</text>
<polygon fill="#80b1d3" stroke="transparent" points="2693.5,-10 2693.5,-30 2713.5,-30 2713.5,-10 2693.5,-10"/>
<text text-anchor="start" x="2717.28" y="-15.4" font-family="Times-12" font-size="14.00"> &#160;Bootstrap</text>
<polygon fill="#fdb462" stroke="transparent" points="2790.5,-10 2790.5,-30 2810.5,-30 2810.5,-10 2790.5,-10"/>
<text text-anchor="start" x="2814.17" y="-15.4" font-family="Times-12" font-size="14.00"> &#160;Providers</text>
<polygon fill="#fb8072" stroke="transparent" points="2886.5,-10 2886.5,-30 2906.5,-30 2906.5,-10 2886.5,-10"/>
<text text-anchor="start" x="2910.23" y="-15.4" font-family="Times-12" font-size="14.00"> &#160;Exports</text>
<g id="clust1" class="cluster">
<title>cluster_AppModule</title>
<polygon fill="none" stroke="black" stroke-dasharray="1,5" points="8,-70 8,-268 5449,-268 5449,-70 8,-70"/>
</g>
<g id="clust2" class="cluster">
<title>cluster_AppModule_declarations</title>
<polygon fill="none" stroke="black" points="4467,-78 4467,-130 5441,-130 5441,-78 4467,-78"/>
</g>
<g id="clust13" class="cluster">
<title>cluster_AppModule_providers</title>
<polygon fill="none" stroke="black" points="3714,-78 3714,-130 4459,-130 4459,-78 3714,-78"/>
</g>
<g id="clust10" class="cluster">
<title>cluster_AppModule_imports</title>
<polygon fill="none" stroke="black" points="16,-78 16,-130 3706,-130 3706,-78 16,-78"/>
</g>
<g id="clust12" class="cluster">
<title>cluster_AppModule_bootstrap</title>
<polygon fill="none" stroke="black" points="2371,-208 2371,-260 2495,-260 2495,-208 2371,-208"/>
</g>
<!-- AppComponent -->
<g id="node1" class="node">
<title>AppComponent</title>
<polygon fill="#ffffb3" stroke="black" points="5432.94,-122 5327.06,-122 5327.06,-86 5432.94,-86 5432.94,-122"/>
<text text-anchor="middle" x="5380" y="-99.8" font-family="Times,serif" font-size="14.00">AppComponent</text>
</g>
<!-- AppModule -->
<g id="node8" class="node">
<title>AppModule</title>
<polygon fill="#8dd3c7" stroke="black" points="2474.66,-187 2471.66,-191 2450.66,-191 2447.66,-187 2391.34,-187 2391.34,-151 2474.66,-151 2474.66,-187"/>
<text text-anchor="middle" x="2433" y="-164.8" font-family="Times,serif" font-size="14.00">AppModule</text>
</g>
<!-- AppComponent&#45;&gt;AppModule -->
<g id="edge1" class="edge">
<title>AppComponent&#45;&gt;AppModule</title>
<path fill="none" stroke="black" d="M5380,-122.38C5380,-146.28 5380,-185 5380,-185 5380,-185 2484.66,-185 2484.66,-185"/>
<polygon fill="black" stroke="black" points="2484.66,-181.5 2474.66,-185 2484.66,-188.5 2484.66,-181.5"/>
</g>
<!-- LoginComponent -->
<g id="node2" class="node">
<title>LoginComponent</title>
<polygon fill="#ffffb3" stroke="black" points="5309.28,-122 5194.72,-122 5194.72,-86 5309.28,-86 5309.28,-122"/>
<text text-anchor="middle" x="5252" y="-99.8" font-family="Times,serif" font-size="14.00">LoginComponent</text>
</g>
<!-- LoginComponent&#45;&gt;AppModule -->
<g id="edge2" class="edge">
<title>LoginComponent&#45;&gt;AppModule</title>
<path fill="none" stroke="black" d="M5252,-122.32C5252,-145.66 5252,-183 5252,-183 5252,-183 2484.76,-183 2484.76,-183"/>
<polygon fill="black" stroke="black" points="2484.76,-179.5 2474.76,-183 2484.76,-186.5 2484.76,-179.5"/>
</g>
<!-- HomeComponent -->
<g id="node3" class="node">
<title>HomeComponent</title>
<polygon fill="#ffffb3" stroke="black" points="5176.55,-122 5061.45,-122 5061.45,-86 5176.55,-86 5176.55,-122"/>
<text text-anchor="middle" x="5119" y="-99.8" font-family="Times,serif" font-size="14.00">HomeComponent</text>
</g>
<!-- HomeComponent&#45;&gt;AppModule -->
<g id="edge3" class="edge">
<title>HomeComponent&#45;&gt;AppModule</title>
<path fill="none" stroke="black" d="M5119,-122.25C5119,-145.02 5119,-181 5119,-181 5119,-181 2484.92,-181 2484.92,-181"/>
<polygon fill="black" stroke="black" points="2484.92,-177.5 2474.92,-181 2484.92,-184.5 2484.92,-177.5"/>
</g>
<!-- SignUpComponent -->
<g id="node4" class="node">
<title>SignUpComponent</title>
<polygon fill="#ffffb3" stroke="black" points="5043.11,-122 4918.89,-122 4918.89,-86 5043.11,-86 5043.11,-122"/>
<text text-anchor="middle" x="4981" y="-99.8" font-family="Times,serif" font-size="14.00">SignUpComponent</text>
</g>
<!-- SignUpComponent&#45;&gt;AppModule -->
<g id="edge4" class="edge">
<title>SignUpComponent&#45;&gt;AppModule</title>
<path fill="none" stroke="black" d="M4981,-122.16C4981,-144.35 4981,-179 4981,-179 4981,-179 2484.84,-179 2484.84,-179"/>
<polygon fill="black" stroke="black" points="2484.84,-175.5 2474.84,-179 2484.84,-182.5 2484.84,-175.5"/>
</g>
<!-- RatingModalComponent -->
<g id="node5" class="node">
<title>RatingModalComponent</title>
<polygon fill="#ffffb3" stroke="black" points="4900.71,-122 4745.29,-122 4745.29,-86 4900.71,-86 4900.71,-122"/>
<text text-anchor="middle" x="4823" y="-99.8" font-family="Times,serif" font-size="14.00">RatingModalComponent</text>
</g>
<!-- RatingModalComponent&#45;&gt;AppModule -->
<g id="edge5" class="edge">
<title>RatingModalComponent&#45;&gt;AppModule</title>
<path fill="none" stroke="black" d="M4823,-122.04C4823,-143.66 4823,-177 4823,-177 4823,-177 2484.74,-177 2484.74,-177"/>
<polygon fill="black" stroke="black" points="2484.74,-173.5 2474.74,-177 2484.74,-180.5 2484.74,-173.5"/>
</g>
<!-- ResetPasswordComponent -->
<g id="node6" class="node">
<title>ResetPasswordComponent</title>
<polygon fill="#ffffb3" stroke="black" points="4727.09,-122 4560.91,-122 4560.91,-86 4727.09,-86 4727.09,-122"/>
<text text-anchor="middle" x="4644" y="-99.8" font-family="Times,serif" font-size="14.00">ResetPasswordComponent</text>
</g>
<!-- ResetPasswordComponent&#45;&gt;AppModule -->
<g id="edge6" class="edge">
<title>ResetPasswordComponent&#45;&gt;AppModule</title>
<path fill="none" stroke="black" d="M4644,-122.28C4644,-143.32 4644,-175 4644,-175 4644,-175 2484.71,-175 2484.71,-175"/>
<polygon fill="black" stroke="black" points="2484.71,-171.5 2474.71,-175 2484.71,-178.5 2484.71,-171.5"/>
</g>
<!-- DatePipe -->
<g id="node7" class="node">
<title>DatePipe</title>
<polygon fill="#ffffb3" stroke="black" points="4542.81,-122 4475.19,-122 4475.19,-86 4542.81,-86 4542.81,-122"/>
<text text-anchor="middle" x="4509" y="-99.8" font-family="Times,serif" font-size="14.00">DatePipe</text>
</g>
<!-- DatePipe&#45;&gt;AppModule -->
<g id="edge7" class="edge">
<title>DatePipe&#45;&gt;AppModule</title>
<path fill="none" stroke="black" d="M4509,-122.13C4509,-142.57 4509,-173 4509,-173 4509,-173 2484.94,-173 2484.94,-173"/>
<polygon fill="black" stroke="black" points="2484.94,-169.5 2474.94,-173 2484.94,-176.5 2484.94,-169.5"/>
</g>
<!-- AppComponent  -->
<g id="node34" class="node">
<title>AppComponent </title>
<polygon fill="#80b1d3" stroke="black" points="2487.44,-252 2378.56,-252 2378.56,-216 2487.44,-216 2487.44,-252"/>
<text text-anchor="middle" x="2433" y="-229.8" font-family="Times,serif" font-size="14.00">AppComponent </text>
</g>
<!-- AppModule&#45;&gt;AppComponent  -->
<g id="edge33" class="edge">
<title>AppModule&#45;&gt;AppComponent </title>
<path fill="none" stroke="black" stroke-dasharray="1,5" d="M2433,-187.11C2433,-187.11 2433,-205.99 2433,-205.99"/>
<polygon fill="black" stroke="black" points="2429.5,-205.99 2433,-215.99 2436.5,-205.99 2429.5,-205.99"/>
</g>
<!-- BrowserModule -->
<g id="node9" class="node">
<title>BrowserModule</title>
<polygon fill="#8dd3c7" stroke="black" points="3698.47,-122 3695.47,-126 3674.47,-126 3671.47,-122 3591.53,-122 3591.53,-86 3698.47,-86 3698.47,-122"/>
<text text-anchor="middle" x="3645" y="-99.8" font-family="Times,serif" font-size="14.00">BrowserModule</text>
</g>
<!-- BrowserModule&#45;&gt;AppModule -->
<g id="edge8" class="edge">
<title>BrowserModule&#45;&gt;AppModule</title>
<path fill="none" stroke="black" d="M3645,-122.27C3645,-140.56 3645,-166 3645,-166 3645,-166 2484.72,-166 2484.72,-166"/>
<polygon fill="black" stroke="black" points="2484.72,-162.5 2474.72,-166 2484.72,-169.5 2484.72,-162.5"/>
</g>
<!-- AppRoutingModule -->
<g id="node10" class="node">
<title>AppRoutingModule</title>
<polygon fill="#8dd3c7" stroke="black" points="3573.27,-122 3570.27,-126 3549.27,-126 3546.27,-122 3444.73,-122 3444.73,-86 3573.27,-86 3573.27,-122"/>
<text text-anchor="middle" x="3509" y="-99.8" font-family="Times,serif" font-size="14.00">AppRoutingModule</text>
</g>
<!-- AppRoutingModule&#45;&gt;AppModule -->
<g id="edge9" class="edge">
<title>AppRoutingModule&#45;&gt;AppModule</title>
<path fill="none" stroke="black" d="M3509,-122C3509,-139.68 3509,-164 3509,-164 3509,-164 2484.85,-164 2484.85,-164"/>
<polygon fill="black" stroke="black" points="2484.85,-160.5 2474.85,-164 2484.85,-167.5 2484.85,-160.5"/>
</g>
<!-- HttpClientModule -->
<g id="node11" class="node">
<title>HttpClientModule</title>
<polygon fill="#8dd3c7" stroke="black" points="3426.16,-122 3423.16,-126 3402.16,-126 3399.16,-122 3307.84,-122 3307.84,-86 3426.16,-86 3426.16,-122"/>
<text text-anchor="middle" x="3367" y="-99.8" font-family="Times,serif" font-size="14.00">HttpClientModule</text>
</g>
<!-- HttpClientModule&#45;&gt;AppModule -->
<g id="edge10" class="edge">
<title>HttpClientModule&#45;&gt;AppModule</title>
<path fill="none" stroke="black" d="M3367,-122.03C3367,-139.06 3367,-162 3367,-162 3367,-162 2484.95,-162 2484.95,-162"/>
<polygon fill="black" stroke="black" points="2484.95,-158.5 2474.95,-162 2484.95,-165.5 2484.95,-158.5"/>
</g>
<!-- TranslateModule.forRoot(args) -->
<g id="node12" class="node">
<title>TranslateModule.forRoot(args)</title>
<polygon fill="#8dd3c7" stroke="black" points="3289.82,-122 3286.82,-126 3265.82,-126 3262.82,-122 3098.18,-122 3098.18,-86 3289.82,-86 3289.82,-122"/>
<text text-anchor="middle" x="3194" y="-99.8" font-family="Times,serif" font-size="14.00">TranslateModule.forRoot(args)</text>
</g>
<!-- TranslateModule.forRoot(args)&#45;&gt;AppModule -->
<g id="edge11" class="edge">
<title>TranslateModule.forRoot(args)&#45;&gt;AppModule</title>
<path fill="none" stroke="black" d="M3194,-122.03C3194,-138.4 3194,-160 3194,-160 3194,-160 2484.73,-160 2484.73,-160"/>
<polygon fill="black" stroke="black" points="2484.73,-156.5 2474.73,-160 2484.73,-163.5 2484.73,-156.5"/>
</g>
<!-- JwtModule.forRoot(args) -->
<g id="node13" class="node">
<title>JwtModule.forRoot(args)</title>
<polygon fill="#8dd3c7" stroke="black" points="3080.18,-122 3077.18,-126 3056.18,-126 3053.18,-122 2921.82,-122 2921.82,-86 3080.18,-86 3080.18,-122"/>
<text text-anchor="middle" x="3001" y="-99.8" font-family="Times,serif" font-size="14.00">JwtModule.forRoot(args)</text>
</g>
<!-- JwtModule.forRoot(args)&#45;&gt;AppModule -->
<g id="edge12" class="edge">
<title>JwtModule.forRoot(args)&#45;&gt;AppModule</title>
<path fill="none" stroke="black" d="M3001,-122.28C3001,-137.95 3001,-158 3001,-158 3001,-158 2484.77,-158 2484.77,-158"/>
<polygon fill="black" stroke="black" points="2484.77,-154.5 2474.77,-158 2484.77,-161.5 2484.77,-154.5"/>
</g>
<!-- BrowserAnimationsModule -->
<g id="node14" class="node">
<title>BrowserAnimationsModule</title>
<polygon fill="#8dd3c7" stroke="black" points="2904.3,-122 2901.3,-126 2880.3,-126 2877.3,-122 2731.7,-122 2731.7,-86 2904.3,-86 2904.3,-122"/>
<text text-anchor="middle" x="2818" y="-99.8" font-family="Times,serif" font-size="14.00">BrowserAnimationsModule</text>
</g>
<!-- BrowserAnimationsModule&#45;&gt;AppModule -->
<g id="edge13" class="edge">
<title>BrowserAnimationsModule&#45;&gt;AppModule</title>
<path fill="none" stroke="black" d="M2818,-122.19C2818,-137.18 2818,-156 2818,-156 2818,-156 2484.93,-156 2484.93,-156"/>
<polygon fill="black" stroke="black" points="2484.93,-152.5 2474.93,-156 2484.93,-159.5 2484.93,-152.5"/>
</g>
<!-- ReactiveFormsModule -->
<g id="node15" class="node">
<title>ReactiveFormsModule</title>
<polygon fill="#8dd3c7" stroke="black" points="2714.3,-122 2711.3,-126 2690.3,-126 2687.3,-122 2569.7,-122 2569.7,-86 2714.3,-86 2714.3,-122"/>
<text text-anchor="middle" x="2642" y="-99.8" font-family="Times,serif" font-size="14.00">ReactiveFormsModule</text>
</g>
<!-- ReactiveFormsModule&#45;&gt;AppModule -->
<g id="edge14" class="edge">
<title>ReactiveFormsModule&#45;&gt;AppModule</title>
<path fill="none" stroke="black" d="M2642,-122.05C2642,-136.37 2642,-154 2642,-154 2642,-154 2484.79,-154 2484.79,-154"/>
<polygon fill="black" stroke="black" points="2484.79,-150.5 2474.79,-154 2484.79,-157.5 2484.79,-150.5"/>
</g>
<!-- SchoolsModule -->
<g id="node16" class="node">
<title>SchoolsModule</title>
<polygon fill="#8dd3c7" stroke="black" points="2551.88,-122 2548.88,-126 2527.88,-126 2524.88,-122 2448.12,-122 2448.12,-86 2551.88,-86 2551.88,-122"/>
<text text-anchor="middle" x="2500" y="-99.8" font-family="Times,serif" font-size="14.00">SchoolsModule</text>
</g>
<!-- SchoolsModule&#45;&gt;AppModule -->
<g id="edge15" class="edge">
<title>SchoolsModule&#45;&gt;AppModule</title>
<path fill="none" stroke="black" d="M2461.44,-122.11C2461.44,-122.11 2461.44,-140.99 2461.44,-140.99"/>
<polygon fill="black" stroke="black" points="2457.94,-140.99 2461.44,-150.99 2464.94,-140.99 2457.94,-140.99"/>
</g>
<!-- PrivateAreaModule -->
<g id="node17" class="node">
<title>PrivateAreaModule</title>
<polygon fill="#8dd3c7" stroke="black" points="2430.4,-122 2427.4,-126 2406.4,-126 2403.4,-122 2303.6,-122 2303.6,-86 2430.4,-86 2430.4,-122"/>
<text text-anchor="middle" x="2367" y="-99.8" font-family="Times,serif" font-size="14.00">PrivateAreaModule</text>
</g>
<!-- PrivateAreaModule&#45;&gt;AppModule -->
<g id="edge16" class="edge">
<title>PrivateAreaModule&#45;&gt;AppModule</title>
<path fill="none" stroke="black" d="M2410.69,-122.11C2410.69,-122.11 2410.69,-140.99 2410.69,-140.99"/>
<polygon fill="black" stroke="black" points="2407.19,-140.99 2410.69,-150.99 2414.19,-140.99 2407.19,-140.99"/>
</g>
<!-- FormsModule -->
<g id="node18" class="node">
<title>FormsModule</title>
<polygon fill="#8dd3c7" stroke="black" points="2285.83,-122 2282.83,-126 2261.83,-126 2258.83,-122 2190.17,-122 2190.17,-86 2285.83,-86 2285.83,-122"/>
<text text-anchor="middle" x="2238" y="-99.8" font-family="Times,serif" font-size="14.00">FormsModule</text>
</g>
<!-- FormsModule&#45;&gt;AppModule -->
<g id="edge17" class="edge">
<title>FormsModule&#45;&gt;AppModule</title>
<path fill="none" stroke="black" d="M2238,-122.05C2238,-136.37 2238,-154 2238,-154 2238,-154 2381.17,-154 2381.17,-154"/>
<polygon fill="black" stroke="black" points="2381.17,-157.5 2391.17,-154 2381.17,-150.5 2381.17,-157.5"/>
</g>
<!-- MatSlideToggleModule -->
<g id="node19" class="node">
<title>MatSlideToggleModule</title>
<polygon fill="#8dd3c7" stroke="black" points="2172.04,-122 2169.04,-126 2148.04,-126 2145.04,-122 2021.96,-122 2021.96,-86 2172.04,-86 2172.04,-122"/>
<text text-anchor="middle" x="2097" y="-99.8" font-family="Times,serif" font-size="14.00">MatSlideToggleModule</text>
</g>
<!-- MatSlideToggleModule&#45;&gt;AppModule -->
<g id="edge18" class="edge">
<title>MatSlideToggleModule&#45;&gt;AppModule</title>
<path fill="none" stroke="black" d="M2097,-122.19C2097,-137.18 2097,-156 2097,-156 2097,-156 2381.12,-156 2381.12,-156"/>
<polygon fill="black" stroke="black" points="2381.12,-159.5 2391.12,-156 2381.12,-152.5 2381.12,-159.5"/>
</g>
<!-- MatDialogModule -->
<g id="node20" class="node">
<title>MatDialogModule</title>
<polygon fill="#8dd3c7" stroke="black" points="2004.2,-122 2001.2,-126 1980.2,-126 1977.2,-122 1883.8,-122 1883.8,-86 2004.2,-86 2004.2,-122"/>
<text text-anchor="middle" x="1944" y="-99.8" font-family="Times,serif" font-size="14.00">MatDialogModule</text>
</g>
<!-- MatDialogModule&#45;&gt;AppModule -->
<g id="edge19" class="edge">
<title>MatDialogModule&#45;&gt;AppModule</title>
<path fill="none" stroke="black" d="M1944,-122.28C1944,-137.95 1944,-158 1944,-158 1944,-158 2381.31,-158 2381.31,-158"/>
<polygon fill="black" stroke="black" points="2381.31,-161.5 2391.31,-158 2381.31,-154.5 2381.31,-161.5"/>
</g>
<!-- MatToolbarModule -->
<g id="node21" class="node">
<title>MatToolbarModule</title>
<polygon fill="#8dd3c7" stroke="black" points="1866.42,-122 1863.42,-126 1842.42,-126 1839.42,-122 1739.58,-122 1739.58,-86 1866.42,-86 1866.42,-122"/>
<text text-anchor="middle" x="1803" y="-99.8" font-family="Times,serif" font-size="14.00">MatToolbarModule</text>
</g>
<!-- MatToolbarModule&#45;&gt;AppModule -->
<g id="edge20" class="edge">
<title>MatToolbarModule&#45;&gt;AppModule</title>
<path fill="none" stroke="black" d="M1803,-122.03C1803,-138.4 1803,-160 1803,-160 1803,-160 2381.18,-160 2381.18,-160"/>
<polygon fill="black" stroke="black" points="2381.18,-163.5 2391.18,-160 2381.18,-156.5 2381.18,-163.5"/>
</g>
<!-- MatIconModule -->
<g id="node22" class="node">
<title>MatIconModule</title>
<polygon fill="#8dd3c7" stroke="black" points="1721.47,-122 1718.47,-126 1697.47,-126 1694.47,-122 1614.53,-122 1614.53,-86 1721.47,-86 1721.47,-122"/>
<text text-anchor="middle" x="1668" y="-99.8" font-family="Times,serif" font-size="14.00">MatIconModule</text>
</g>
<!-- MatIconModule&#45;&gt;AppModule -->
<g id="edge21" class="edge">
<title>MatIconModule&#45;&gt;AppModule</title>
<path fill="none" stroke="black" d="M1668,-122.03C1668,-139.06 1668,-162 1668,-162 1668,-162 2381.33,-162 2381.33,-162"/>
<polygon fill="black" stroke="black" points="2381.33,-165.5 2391.33,-162 2381.33,-158.5 2381.33,-165.5"/>
</g>
<!-- MatInputModule -->
<g id="node23" class="node">
<title>MatInputModule</title>
<polygon fill="#8dd3c7" stroke="black" points="1596.65,-122 1593.65,-126 1572.65,-126 1569.65,-122 1485.35,-122 1485.35,-86 1596.65,-86 1596.65,-122"/>
<text text-anchor="middle" x="1541" y="-99.8" font-family="Times,serif" font-size="14.00">MatInputModule</text>
</g>
<!-- MatInputModule&#45;&gt;AppModule -->
<g id="edge22" class="edge">
<title>MatInputModule&#45;&gt;AppModule</title>
<path fill="none" stroke="black" d="M1541,-122C1541,-139.68 1541,-164 1541,-164 1541,-164 2381.17,-164 2381.17,-164"/>
<polygon fill="black" stroke="black" points="2381.17,-167.5 2391.17,-164 2381.17,-160.5 2381.17,-167.5"/>
</g>
<!-- MatButtonModule -->
<g id="node24" class="node">
<title>MatButtonModule</title>
<polygon fill="#8dd3c7" stroke="black" points="1467.22,-122 1464.22,-126 1443.22,-126 1440.22,-122 1346.78,-122 1346.78,-86 1467.22,-86 1467.22,-122"/>
<text text-anchor="middle" x="1407" y="-99.8" font-family="Times,serif" font-size="14.00">MatButtonModule</text>
</g>
<!-- MatButtonModule&#45;&gt;AppModule -->
<g id="edge23" class="edge">
<title>MatButtonModule&#45;&gt;AppModule</title>
<path fill="none" stroke="black" d="M1407,-122.27C1407,-140.56 1407,-166 1407,-166 1407,-166 2381.19,-166 2381.19,-166"/>
<polygon fill="black" stroke="black" points="2381.19,-169.5 2391.19,-166 2381.19,-162.5 2381.19,-169.5"/>
</g>
<!-- MatSelectModule -->
<g id="node25" class="node">
<title>MatSelectModule</title>
<polygon fill="#8dd3c7" stroke="black" points="1329.31,-122 1326.31,-126 1305.31,-126 1302.31,-122 1212.69,-122 1212.69,-86 1329.31,-86 1329.31,-122"/>
<text text-anchor="middle" x="1271" y="-99.8" font-family="Times,serif" font-size="14.00">MatSelectModule</text>
</g>
<!-- MatSelectModule&#45;&gt;AppModule -->
<g id="edge24" class="edge">
<title>MatSelectModule&#45;&gt;AppModule</title>
<path fill="none" stroke="black" d="M1271,-122.17C1271,-141.09 1271,-168 1271,-168 1271,-168 2381.3,-168 2381.3,-168"/>
<polygon fill="black" stroke="black" points="2381.3,-171.5 2391.3,-168 2381.3,-164.5 2381.3,-171.5"/>
</g>
<!-- PrimeButtonModule -->
<g id="node26" class="node">
<title>PrimeButtonModule</title>
<polygon fill="#8dd3c7" stroke="black" points="1194.61,-122 1191.61,-126 1170.61,-126 1167.61,-122 1063.39,-122 1063.39,-86 1194.61,-86 1194.61,-122"/>
<text text-anchor="middle" x="1129" y="-99.8" font-family="Times,serif" font-size="14.00">PrimeButtonModule</text>
</g>
<!-- PrimeButtonModule&#45;&gt;AppModule -->
<g id="edge25" class="edge">
<title>PrimeButtonModule&#45;&gt;AppModule</title>
<path fill="none" stroke="black" d="M1129,-122.31C1129,-142.15 1129,-171 1129,-171 1129,-171 2381.09,-171 2381.09,-171"/>
<polygon fill="black" stroke="black" points="2381.09,-174.5 2391.09,-171 2381.09,-167.5 2381.09,-174.5"/>
</g>
<!-- PrimeDialogModule -->
<g id="node27" class="node">
<title>PrimeDialogModule</title>
<polygon fill="#8dd3c7" stroke="black" points="1045.59,-122 1042.59,-126 1021.59,-126 1018.59,-122 914.41,-122 914.41,-86 1045.59,-86 1045.59,-122"/>
<text text-anchor="middle" x="980" y="-99.8" font-family="Times,serif" font-size="14.00">PrimeDialogModule</text>
</g>
<!-- PrimeDialogModule&#45;&gt;AppModule -->
<g id="edge26" class="edge">
<title>PrimeDialogModule&#45;&gt;AppModule</title>
<path fill="none" stroke="black" d="M980,-122.13C980,-142.57 980,-173 980,-173 980,-173 2381.08,-173 2381.08,-173"/>
<polygon fill="black" stroke="black" points="2381.08,-176.5 2391.08,-173 2381.08,-169.5 2381.08,-176.5"/>
</g>
<!-- PrimePasswordModule -->
<g id="node28" class="node">
<title>PrimePasswordModule</title>
<polygon fill="#8dd3c7" stroke="black" points="896.14,-122 893.14,-126 872.14,-126 869.14,-122 749.86,-122 749.86,-86 896.14,-86 896.14,-122"/>
<text text-anchor="middle" x="823" y="-99.8" font-family="Times,serif" font-size="14.00">PrimePasswordModule</text>
</g>
<!-- PrimePasswordModule&#45;&gt;AppModule -->
<g id="edge27" class="edge">
<title>PrimePasswordModule&#45;&gt;AppModule</title>
<path fill="none" stroke="black" d="M823,-122.28C823,-143.32 823,-175 823,-175 823,-175 2381.17,-175 2381.17,-175"/>
<polygon fill="black" stroke="black" points="2381.17,-178.5 2391.17,-175 2381.17,-171.5 2381.17,-178.5"/>
</g>
<!-- PrimeToolbarModule -->
<g id="node29" class="node">
<title>PrimeToolbarModule</title>
<polygon fill="#8dd3c7" stroke="black" points="731.81,-122 728.81,-126 707.81,-126 704.81,-122 594.19,-122 594.19,-86 731.81,-86 731.81,-122"/>
<text text-anchor="middle" x="663" y="-99.8" font-family="Times,serif" font-size="14.00">PrimeToolbarModule</text>
</g>
<!-- PrimeToolbarModule&#45;&gt;AppModule -->
<g id="edge28" class="edge">
<title>PrimeToolbarModule&#45;&gt;AppModule</title>
<path fill="none" stroke="black" d="M663,-122.04C663,-143.66 663,-177 663,-177 663,-177 2380.99,-177 2380.99,-177"/>
<polygon fill="black" stroke="black" points="2380.99,-180.5 2390.99,-177 2380.99,-173.5 2380.99,-180.5"/>
</g>
<!-- PrimeCardModule -->
<g id="node30" class="node">
<title>PrimeCardModule</title>
<polygon fill="#8dd3c7" stroke="black" points="576.2,-122 573.2,-126 552.2,-126 549.2,-122 455.8,-122 455.8,-86 576.2,-86 576.2,-122"/>
<text text-anchor="middle" x="516" y="-99.8" font-family="Times,serif" font-size="14.00">PrimeCardModule</text>
</g>
<!-- PrimeCardModule&#45;&gt;AppModule -->
<g id="edge29" class="edge">
<title>PrimeCardModule&#45;&gt;AppModule</title>
<path fill="none" stroke="black" d="M516,-122.16C516,-144.35 516,-179 516,-179 516,-179 2381.18,-179 2381.18,-179"/>
<polygon fill="black" stroke="black" points="2381.18,-182.5 2391.18,-179 2381.18,-175.5 2381.18,-182.5"/>
</g>
<!-- PrimeCarouselModule -->
<g id="node31" class="node">
<title>PrimeCarouselModule</title>
<polygon fill="#8dd3c7" stroke="black" points="438.25,-122 435.25,-126 414.25,-126 411.25,-122 295.75,-122 295.75,-86 438.25,-86 438.25,-122"/>
<text text-anchor="middle" x="367" y="-99.8" font-family="Times,serif" font-size="14.00">PrimeCarouselModule</text>
</g>
<!-- PrimeCarouselModule&#45;&gt;AppModule -->
<g id="edge30" class="edge">
<title>PrimeCarouselModule&#45;&gt;AppModule</title>
<path fill="none" stroke="black" d="M367,-122.25C367,-145.02 367,-181 367,-181 367,-181 2381.26,-181 2381.26,-181"/>
<polygon fill="black" stroke="black" points="2381.26,-184.5 2391.26,-181 2381.26,-177.5 2381.26,-184.5"/>
</g>
<!-- PrimeGalleriaModule -->
<g id="node32" class="node">
<title>PrimeGalleriaModule</title>
<polygon fill="#8dd3c7" stroke="black" points="278.07,-122 275.07,-126 254.07,-126 251.07,-122 139.93,-122 139.93,-86 278.07,-86 278.07,-122"/>
<text text-anchor="middle" x="209" y="-99.8" font-family="Times,serif" font-size="14.00">PrimeGalleriaModule</text>
</g>
<!-- PrimeGalleriaModule&#45;&gt;AppModule -->
<g id="edge31" class="edge">
<title>PrimeGalleriaModule&#45;&gt;AppModule</title>
<path fill="none" stroke="black" d="M209,-122.32C209,-145.66 209,-183 209,-183 209,-183 2381.05,-183 2381.05,-183"/>
<polygon fill="black" stroke="black" points="2381.05,-186.5 2391.05,-183 2381.05,-179.5 2381.05,-186.5"/>
</g>
<!-- SharedModule -->
<g id="node33" class="node">
<title>SharedModule</title>
<polygon fill="#8dd3c7" stroke="black" points="122.42,-122 119.42,-126 98.42,-126 95.42,-122 23.58,-122 23.58,-86 122.42,-86 122.42,-122"/>
<text text-anchor="middle" x="73" y="-99.8" font-family="Times,serif" font-size="14.00">SharedModule</text>
</g>
<!-- SharedModule&#45;&gt;AppModule -->
<g id="edge32" class="edge">
<title>SharedModule&#45;&gt;AppModule</title>
<path fill="none" stroke="black" d="M73,-122.38C73,-146.28 73,-185 73,-185 73,-185 2381.29,-185 2381.29,-185"/>
<polygon fill="black" stroke="black" points="2381.29,-188.5 2391.29,-185 2381.29,-181.5 2381.29,-188.5"/>
</g>
<!-- { provide: HTTP_INTERCEPTORS, useClass: JwtInterceptor, multi: &#160;} -->
<g id="node35" class="node">
<title>{ provide: HTTP_INTERCEPTORS, useClass: JwtInterceptor, multi: &#160;}</title>
<ellipse fill="#fdb462" stroke="black" cx="4162" cy="-104" rx="289.13" ry="18"/>
<text text-anchor="middle" x="4162" y="-99.8" font-family="Times,serif" font-size="14.00">{ provide: HTTP_INTERCEPTORS, useClass: JwtInterceptor, multi: &#160;}</text>
</g>
<!-- { provide: HTTP_INTERCEPTORS, useClass: JwtInterceptor, multi: &#160;}&#45;&gt;AppModule -->
<g id="edge34" class="edge">
<title>{ provide: HTTP_INTERCEPTORS, useClass: JwtInterceptor, multi: &#160;}&#45;&gt;AppModule</title>
<path fill="none" stroke="black" d="M4162,-122.31C4162,-142.15 4162,-171 4162,-171 4162,-171 2484.88,-171 2484.88,-171"/>
<polygon fill="black" stroke="black" points="2484.88,-167.5 2474.88,-171 2484.88,-174.5 2484.88,-167.5"/>
</g>
<!-- DialogService -->
<g id="node36" class="node">
<title>DialogService</title>
<ellipse fill="#fdb462" stroke="black" cx="3788" cy="-104" rx="66.05" ry="18"/>
<text text-anchor="middle" x="3788" y="-99.8" font-family="Times,serif" font-size="14.00">DialogService</text>
</g>
<!-- DialogService&#45;&gt;AppModule -->
<g id="edge35" class="edge">
<title>DialogService&#45;&gt;AppModule</title>
<path fill="none" stroke="black" d="M3788,-122.17C3788,-141.09 3788,-168 3788,-168 3788,-168 2484.66,-168 2484.66,-168"/>
<polygon fill="black" stroke="black" points="2484.66,-164.5 2474.66,-168 2484.66,-171.5 2484.66,-164.5"/>
</g>
</g>
</svg>
